<svg xmlns="http://www.w3.org/2000/svg" viewBox="0 0 173 173"><defs><style>.cls-1{fill:#065266;}.cls-2{fill:#fff;}</style></defs><title>Botones</title><g id="Figuras"><rect class="cls-1" width="173" height="173" rx="11.3" ry="11.3"/><path class="cls-2" d="M20.5,150.4V28.7a9.2,9.2,0,0,1,9.1-9.2H82.5a62,62,0,0,1,.4,17.2C81.4,48.1,101.6,66.6,100.6,70c-1.5,5-5.6,5.3-10.2,7.1s-2.5,4.9-1.5,8.6,3.9,9.5,2.9,11.3c-2.2,4.2-22.6,4.2-25.6,4.1-1.1-.1-2.7-.5-2.2,1.6.8,4.1,2.3,8.5,5.7,11.2S78,119,82,119.5s3.8,1.8,3.2,4.6a31.1,31.1,0,0,0-.5,10.1c1.1,8.6-4.6,12.2-12.9,14.7-11.1,3.4-18.5,2.2-30,1.3-13.9-1-13.7,1.5-18.8,6.4l-.3-.4a9.1,9.1,0,0,1-2.2-5Z"/><polygon class="cls-2" points="101.4 115.1 154.9 117.3 154.9 108.1 101.4 110.3 101.4 115.1"/><polygon class="cls-2" points="100.3 97.8 152.8 87.3 150.6 78.3 99.1 93.2 100.3 97.8"/><polygon class="cls-2" points="100.3 126 152.8 136.5 150.6 145.5 99.1 130.6 100.3 126"/></g></svg>