<svg xmlns="http://www.w3.org/2000/svg" viewBox="0 0 308.8 337.3"><defs><style>.cls-1{fill:#00bcd4;}.cls-2{fill:#80d4d6;}.cls-3{fill:#15acc2;}.cls-4{fill:#44c9cc;}</style></defs><title>Icono</title><g id="Fondos"><rect class="cls-1" x="-205.1" y="-817.6" width="720" height="1280"/></g><g id="Figuras"><rect class="cls-2" x="142.8" y="39.4" width="22.8" height="83.17"/><polygon class="cls-3" points="165.5 44.6 142.8 59.1 142.8 78.8 165.5 65 165.5 44.6"/><polygon class="cls-3" points="165.5 84 142.8 98.5 142.8 118.2 165.5 104.4 165.5 84"/><path class="cls-2" d="M152.8,31.6s-9,.2-4.9-15.8S149.2,0,149.2,0s13,8.8,11.9,24.2a7.8,7.8,0,0,1-6.6,7.3Z"/><path class="cls-4" d="M153.8,28.9s-5.2.2-2.9-9,.8-9,.8-9,7.4,5,6.8,13.8a4.5,4.5,0,0,1-3.8,4.2A1.4,1.4,0,0,1,153.8,28.9Z"/><path class="cls-2" d="M19.9,122.5H288.9a19.9,19.9,0,0,1,19.9,19.9V324.8a12.5,12.5,0,0,1-12.5,12.5H12.5A12.5,12.5,0,0,1,0,324.8V142.3A19.9,19.9,0,0,1,19.9,122.5Z"/><rect class="cls-4" y="236.3" width="308.8" height="15.65"/><path class="cls-4" d="M308.8,140.2a40.8,40.8,0,0,1-1.1,9.3,38.6,38.6,0,0,1-74.7,1.1,1.4,1.4,0,0,0-1.4-1.1h0a1.5,1.5,0,0,0-1.4,1.1,38.6,38.6,0,0,1-74.4,0,1.4,1.4,0,0,0-1.4-1.1h0a1.4,1.4,0,0,0-1.4,1.1,38.6,38.6,0,0,1-74.4,0,1.4,1.4,0,0,0-1.4-1.1h0a1.4,1.4,0,0,0-1.4,1.1,38.6,38.6,0,0,1-74.7-1.1A40.8,40.8,0,0,1,0,140.2v-.5a17.8,17.8,0,0,1,17.8-17.2H291a17.7,17.7,0,0,1,17.8,17.7"/></g></svg>