<svg xmlns="http://www.w3.org/2000/svg" viewBox="0 0 244 340.3"><defs><style>.cls-1{fill:#00bcd4;}.cls-2{fill:#80d4d6;}.cls-3{fill:#15acc2;}</style></defs><title>Icono</title><g id="Fondos"><rect class="cls-1" x="-238.5" y="-847.1" width="720" height="1280"/></g><g id="Figuras"><path class="cls-2" d="M78.7,36l22.6-12.2h.2l20.3-17,.4-.2L145.4,0h.7l12.8,5.2a1,1,0,0,1,.6,1.3L157.4,15a1.2,1.2,0,0,1-.6.8l-20.6,7.9a.7.7,0,0,0-.5.4l-14.4,20a1.1,1.1,0,0,0-.2.6V75.4a.6.6,0,0,0,.1.4l9.6,25.7a1,1,0,0,0,.5.6l26.8,14.6h.1l31,12.3h.4l40.4,1.5a1.2,1.2,0,0,1,1.1,1.3l-5.5,28.9a1.3,1.3,0,0,0,.1.6l9.7,25.1v.2l8.6,38.8a1.1,1.1,0,0,1-1.6,1.2l-15.8-7.9H189.5a1.1,1.1,0,0,0-1,1.6L198.8,240a1.2,1.2,0,0,1-.3,1.4l-16.6,12.1a1.1,1.1,0,0,0-.3,1.4L195,280.8a2,2,0,0,1,.1.7l-10.4,57.9a1.1,1.1,0,0,1-1.7.7l-5.7-4.5-.6-.2-5.5-.6a1,1,0,0,1-.8-1.6l11-21.4a1.2,1.2,0,0,0-.5-1.5l-19.3-7.7h-.4L121.8,305a1.1,1.1,0,0,1-1-.6l-13.5-24.7-.4-.3L78.4,259a.1.1,0,0,1-.1-.1L53.9,247.5h-.4L31,245.8a.7.7,0,0,1-.6-.2L.5,225.2a1.1,1.1,0,0,1-.2-1.7l21.2-22,.2-.2,15.4-30.1a.7.7,0,0,0,.1-.5l-.8-32.4a.6.6,0,0,0-.1-.4L23.6,107.6a1,1,0,0,1,.4-1.3L46.9,89.7l.3-.3L66.8,60h.1L78.2,36.4A1,1,0,0,1,78.7,36Z"/><path class="cls-3" d="M134.2,202a38.4,38.4,0,1,1,4.9-5.2l33.2,30.8-7.5,7.4ZM88,151.5a30.7,30.7,0,1,0,43.4,0A30.5,30.5,0,0,0,88,151.5Z"/></g></svg>