<svg xmlns="http://www.w3.org/2000/svg" viewBox="0 0 720 1280"><defs><style>.cls-1{fill:#00bcd4;}.cls-2{fill:#03c9a8;}.cls-3{fill:#80d4d6;}.cls-4{fill:#15acc2;}.cls-5{fill:#44c9cc;}.cls-6{font-size:65px;font-family:Mali-SemiBold, Mali SemiBold;}</style></defs><title>Registro</title><g id="Figuras"><rect class="cls-1" width="720" height="1280"/><rect class="cls-2" x="69.5" y="204" width="580" height="125"/><rect class="cls-3" x="358.5" y="857" width="22.8" height="83.17"/><polygon class="cls-4" points="381.3 862.2 358.5 876.7 358.5 896.4 381.3 882.6 381.3 862.2"/><polygon class="cls-4" points="381.3 901.6 358.5 916.1 358.5 935.8 381.3 922 381.3 901.6"/><path class="cls-3" d="M368.6,849.1s-9.1.3-5-15.7,1.4-15.8,1.4-15.8,12.9,8.7,11.9,24.2a8,8,0,0,1-6.6,7.3A4.9,4.9,0,0,1,368.6,849.1Z"/><path class="cls-5" d="M369.5,846.5s-5.2.2-2.8-9,.7-9,.7-9,7.4,5,6.8,13.8a4.4,4.4,0,0,1-3.7,4.2A1.7,1.7,0,0,1,369.5,846.5Z"/><path class="cls-3" d="M235.6,940H504.7a19.9,19.9,0,0,1,19.9,19.9v182.5a12.5,12.5,0,0,1-12.5,12.5H228.2a12.5,12.5,0,0,1-12.5-12.5V959.9A19.9,19.9,0,0,1,235.6,940Z"/><rect class="cls-5" x="215.7" y="1053.9" width="308.8" height="15.65"/><path class="cls-5" d="M524.6,957.8a35.9,35.9,0,0,1-1.2,9.3,38.6,38.6,0,0,1-74.7,1.1,1.3,1.3,0,0,0-1.4-1.1h0a1.3,1.3,0,0,0-1.3,1.1,38.7,38.7,0,0,1-74.5,0,1.3,1.3,0,0,0-1.4-1.1h0a1.5,1.5,0,0,0-1.4,1.1,38.6,38.6,0,0,1-74.4,0,1.3,1.3,0,0,0-1.4-1.1h0a1.5,1.5,0,0,0-1.4,1.1,38.6,38.6,0,0,1-74.6-1.1,35.9,35.9,0,0,1-1.2-9.3v-.5A17.9,17.9,0,0,1,233.5,940H506.8a17.8,17.8,0,0,1,17.8,17.8"/></g><g id="Texto"><text class="cls-6" transform="translate(161 289.7) scale(0.87 1)">¿Es correcto?</text></g></svg>