<svg xmlns="http://www.w3.org/2000/svg" viewBox="0 0 720 1280"><defs><style>.cls-1{fill:#00bcd4;}.cls-2{fill:#80d4d6;}.cls-3{fill:#15acc2;}.cls-4{fill:#03c9a8;}.cls-5{font-size:65px;font-family:Mali-SemiBold, Mali SemiBold;}</style></defs><title>Registro</title><g id="Figuras"><rect class="cls-1" width="720" height="1280"/><path class="cls-2" d="M306.8,883.1,329.4,871c.1-.1.2-.1.2-.2l20.3-17,.4-.2,23.3-6.4a.9.9,0,0,1,.7,0l12.8,5.3a1,1,0,0,1,.6,1.2l-2.1,8.4a1,1,0,0,1-.7.8l-20.5,7.9a1,1,0,0,0-.5.4l-14.4,20a.7.7,0,0,0-.2.6v31.1l9.7,25.7a1,1,0,0,0,.5.6l26.7,14.6h.1l31.1,12.3h.3l40.5,1.6a1,1,0,0,1,1,1.2l-5.4,28.9a.6.6,0,0,0,0,.6l9.7,25.1v.2l8.5,38.8a1.1,1.1,0,0,1-1.5,1.2l-15.8-7.9H417.7a1.1,1.1,0,0,0-1,1.6l10.3,19.8a1,1,0,0,1-.4,1.3l-16.5,12.1a1.1,1.1,0,0,0-.4,1.4l13.4,26a.7.7,0,0,1,.1.6l-10.3,57.9a1.1,1.1,0,0,1-1.7.7l-5.8-4.5-.5-.2-5.5-.6a1.1,1.1,0,0,1-.9-1.6l11.1-21.3a1.2,1.2,0,0,0-.6-1.6l-19.2-7.6h-.5l-39.3,2.4a1.1,1.1,0,0,1-1.1-.6l-13.5-24.6-.3-.4-28.5-20.4h-.2L282,1094.7h-.4l-22.5-1.7h-.5l-30-20.5a1.2,1.2,0,0,1-.1-1.7l21.2-22v-.2l15.5-30.1a.7.7,0,0,0,.1-.5l-.8-32.4c0-.1-.1-.3-.1-.4l-12.7-30.2a1.2,1.2,0,0,1,.3-1.4l23-16.6.3-.3L295,907.1h0l11.4-23.4A.7.7,0,0,1,306.8,883.1Z"/><path class="cls-3" d="M362.3,1049.1a37.7,37.7,0,1,1,5-5.1l33.2,30.7-7.5,7.5Zm-46.1-50.5a30.6,30.6,0,1,0,43.3,0A30.5,30.5,0,0,0,316.2,998.6Z"/><rect class="cls-4" x="70.5" y="205.3" width="580" height="200"/></g><g id="Texto"><text class="cls-5" transform="translate(198.9 289.7) scale(0.87 1)">6. Ciudad o<tspan x="31.6" y="78">Municipio</tspan></text></g></svg>