<svg xmlns="http://www.w3.org/2000/svg" viewBox="0 0 720 1280"><defs><style>.cls-1{fill:#00bcd4;}.cls-2{fill:#03c9a8;}.cls-3{fill:#80d4d6;}.cls-4{fill:#15acc2;}.cls-5{fill:#44c9cc;}.cls-6{font-size:65px;font-family:Mali-SemiBold, Mali SemiBold;}</style></defs><title>Registro</title><g id="Figuras"><rect class="cls-1" width="720" height="1280"/><rect class="cls-2" x="70.5" y="204" width="580" height="125"/><rect class="cls-3" x="347.9" y="857" width="22.8" height="83.17"/><polygon class="cls-4" points="370.6 862.2 347.9 876.7 347.9 896.4 370.6 882.6 370.6 862.2"/><polygon class="cls-4" points="370.6 901.6 347.9 916.1 347.9 935.8 370.6 922 370.6 901.6"/><path class="cls-3" d="M357.9,849.1s-9,.3-4.9-15.7,1.3-15.8,1.3-15.8,13,8.7,11.9,24.2a7.8,7.8,0,0,1-6.6,7.3A4.8,4.8,0,0,1,357.9,849.1Z"/><path class="cls-5" d="M358.9,846.5s-5.2.2-2.9-9,.8-9,.8-9,7.4,5,6.8,13.8a4.6,4.6,0,0,1-3.8,4.2A1.4,1.4,0,0,1,358.9,846.5Z"/><path class="cls-3" d="M225,940H494a19.9,19.9,0,0,1,19.9,19.9v182.5a12.5,12.5,0,0,1-12.5,12.5H217.6a12.5,12.5,0,0,1-12.5-12.5V959.9A19.9,19.9,0,0,1,225,940Z"/><rect class="cls-5" x="205.1" y="1053.9" width="308.8" height="15.65"/><path class="cls-5" d="M513.9,957.8a40.8,40.8,0,0,1-1.1,9.3,38.6,38.6,0,0,1-74.7,1.1,1.4,1.4,0,0,0-1.4-1.1h0a1.4,1.4,0,0,0-1.4,1.1,38.6,38.6,0,0,1-74.4,0,1.4,1.4,0,0,0-1.4-1.1h0a1.4,1.4,0,0,0-1.4,1.1,38.6,38.6,0,0,1-74.4,0,1.4,1.4,0,0,0-1.4-1.1h0a1.4,1.4,0,0,0-1.4,1.1,38.6,38.6,0,0,1-74.7-1.1,40.8,40.8,0,0,1-1.1-9.3v-.5A17.8,17.8,0,0,1,222.9,940H496.1a17.8,17.8,0,0,1,17.8,17.8"/></g><g id="Texto"><text class="cls-6" transform="translate(254.3 289.7) scale(0.87 1)">3. Edad</text></g></svg>