<svg xmlns="http://www.w3.org/2000/svg" viewBox="0 0 720 1280"><defs><style>.cls-1{fill:#00bcd4;}.cls-2{fill:#80d4d6;}.cls-3{fill:#15acc2;}.cls-4{fill:#03c9a8;}.cls-5{font-size:65px;font-family:Mali-SemiBold, Mali SemiBold;}</style></defs><title>Registro</title><g id="Figuras"><rect class="cls-1" width="720" height="1280"/><path class="cls-2" d="M317.2,883.1,339.8,871c0-.1.1-.1.2-.2l20.3-17a.5.5,0,0,1,.4-.2l23.2-6.4a.8.8,0,0,1,.7,0l12.8,5.3a.9.9,0,0,1,.6,1.2l-2.1,8.4a1,1,0,0,1-.6.8l-20.6,7.9-.5.4-14.4,20a1.4,1.4,0,0,0-.2.6v30.7a.6.6,0,0,0,.1.4l9.6,25.7a1,1,0,0,0,.5.6l26.8,14.6h.1l31,12.3h.4l40.4,1.6a1.1,1.1,0,0,1,1.1,1.2l-5.5,28.9a1.3,1.3,0,0,0,.1.6l9.7,25.1v.2l8.6,38.8a1.1,1.1,0,0,1-1.6,1.2l-15.8-7.9H428a1.2,1.2,0,0,0-1,1.6l10.3,19.8a1,1,0,0,1-.3,1.3l-16.6,12.1a1.1,1.1,0,0,0-.3,1.4l13.4,26a1.3,1.3,0,0,1,.1.6l-10.4,57.9a1.1,1.1,0,0,1-1.7.7l-5.7-4.5-.6-.2-5.5-.6a1,1,0,0,1-.8-1.6l11-21.3a1.3,1.3,0,0,0-.5-1.6l-19.3-7.6h-.4l-39.4,2.4a1.1,1.1,0,0,1-1-.6l-13.5-24.6a.8.8,0,0,0-.4-.4l-28.5-20.4h-.1l-24.4-11.3H292l-22.5-1.7h-.6L239,1072.3a1.1,1.1,0,0,1-.2-1.7l21.2-22,.2-.2,15.4-30.1a.7.7,0,0,0,.1-.5l-.8-32.4a.6.6,0,0,0-.1-.4l-12.7-30.2a1.2,1.2,0,0,1,.4-1.4l22.9-16.6c.2-.1.2-.2.3-.3l19.6-29.4a.1.1,0,0,0,.1-.1l11.3-23.4A.8.8,0,0,1,317.2,883.1Z"/><path class="cls-3" d="M372.7,1049.1a38.1,38.1,0,1,1,4.9-5.1l33.2,30.7-7.5,7.5Zm-46.2-50.5a30.7,30.7,0,1,0,43.4,0A30.7,30.7,0,0,0,326.5,998.6Z"/><rect class="cls-4" x="69.5" y="204" width="580" height="125"/></g><g id="Texto"><text class="cls-5" transform="translate(161 289.7) scale(0.87 1)">¿Es correcto?</text></g></svg>