<svg xmlns="http://www.w3.org/2000/svg" xmlns:xlink="http://www.w3.org/1999/xlink" viewBox="0 0 720 1280"><defs><style>.cls-1,.cls-16,.cls-22,.cls-33,.cls-4{fill:none;}.cls-2{fill:url(#radial-gradient);}.cls-3{fill:url(#radial-gradient-2);}.cls-4{clip-rule:evenodd;}.cls-5{fill:#00bcd4;}.cls-6{fill:#03c9a8;}.cls-7{fill:#0096a6;}.cls-8{clip-path:url(#clip-path);}.cls-15,.cls-27,.cls-9{fill:#1d1d1b;}.cls-10,.cls-11,.cls-14,.cls-16,.cls-22,.cls-24,.cls-25,.cls-29,.cls-33,.cls-34,.cls-9{stroke:#1d1d1b;stroke-linecap:round;}.cls-10,.cls-11,.cls-14,.cls-16,.cls-22,.cls-24,.cls-25,.cls-29,.cls-34,.cls-9{stroke-linejoin:round;}.cls-14,.cls-9{stroke-width:1.55px;}.cls-10,.cls-29{fill:#8ccab1;}.cls-10,.cls-11,.cls-29{stroke-width:1.77px;}.cls-11,.cls-14{fill:#f5ad93;}.cls-12{fill:#d9897d;opacity:0.23;}.cls-13,.cls-31{fill:#85bea8;}.cls-16{stroke-width:1.64px;}.cls-17,.cls-28{fill:#fff;}.cls-18{clip-path:url(#clip-path-2);}.cls-19{fill:url(#radial-gradient-4);}.cls-20{clip-path:url(#clip-path-3);}.cls-21{fill:url(#radial-gradient-6);}.cls-22,.cls-33{stroke-width:0.75px;}.cls-23{clip-path:url(#clip-path-4);}.cls-24,.cls-25{fill:#eecbb3;stroke-width:1.79px;}.cls-24,.cls-26,.cls-27,.cls-28,.cls-29,.cls-31,.cls-33,.cls-34{fill-rule:evenodd;}.cls-26,.cls-32{fill:#d7b6a4;}.cls-30{clip-path:url(#clip-path-5);}.cls-33{stroke-miterlimit:10;}.cls-34{fill:#ba9b86;stroke-width:1.32px;}.cls-35{font-size:65px;font-family:Mali-SemiBold, Mali SemiBold;}</style><radialGradient id="radial-gradient" cx="992.19" cy="221.61" r="7.65" gradientTransform="translate(-732.2 798.3) rotate(-0.8)" gradientUnits="userSpaceOnUse"><stop offset="0" stop-color="#ed8098"/><stop offset="1" stop-color="#f5ae94"/></radialGradient><radialGradient id="radial-gradient-2" cx="1048.75" cy="220.33" r="7.65" xlink:href="#radial-gradient"/><clipPath id="clip-path"><rect class="cls-1" x="177.5" y="908.2" width="224.4" height="187.94"/></clipPath><clipPath id="clip-path-2"><path class="cls-2" d="M254,1005.2a.7.7,0,0,0-.1.5v2.6a9,9,0,0,0,7.2,7.5H264a9.2,9.2,0,0,0,.4-18.1l-1.7-.2a9.1,9.1,0,0,0-8.7,7.7"/></clipPath><radialGradient id="radial-gradient-4" cx="4130.8" cy="1371.02" r="2.61" gradientTransform="matrix(-3.22, 0, 0, 3.84, 13582.18, -4263.26)" xlink:href="#radial-gradient"/><clipPath id="clip-path-3"><path class="cls-3" d="M310.5,1003.1c0,.2-.1.4-.1.6v2.5a9,9,0,0,0,7.3,7.6h2.9a9.3,9.3,0,0,0,.3-18.2h-1.7a9.1,9.1,0,0,0-8.7,7.6"/></clipPath><radialGradient id="radial-gradient-6" cx="4127.09" cy="1385.41" r="2.61" gradientTransform="matrix(-3.22, 0, 0, 3.84, 13626.74, -4320.61)" xlink:href="#radial-gradient"/><clipPath id="clip-path-4"><rect class="cls-1" x="319.1" y="908.7" width="224.4" height="187.94"/></clipPath><clipPath id="clip-path-5"><path id="_Clipping_Path_" data-name="&lt;Clipping Path&gt;" class="cls-4" d="M446.9,1026.7c-5.8-.3,16.9,5.1,23.5,6.7,3.1.8,7,1.7,7.7,5.4l-6.1,48.1.5,10.8s-2.1,33.2.3,43.4,2.3,16.9,1.4,17.1-8.4,10-18.6,10.9c-3.7.3-33.5,3.2-43.5,1.4a94,94,0,0,1-18.4-5.8l-1.8-74s-10-49.1-7.3-52.7,28.9-9.6,28.9-9.6.1,6,16.6,5.3S446.9,1026.7,446.9,1026.7Z"/></clipPath></defs><title>Registro</title><g id="Figuras"><rect class="cls-5" width="720" height="1280"/><rect class="cls-6" x="70.5" y="204" width="580" height="125"/><circle class="cls-7" cx="364.2" cy="1025.9" r="161.5"/><g class="cls-8"><path class="cls-9" d="M326.9,944.9c-18.2-13.9-36.8-8.2-36.8-8.2s-20.6-5.3-38.6,8.8-22.4,61.9-21.1,92.6,35.4,41.1,35.4,41.1h25.7l25.7-.3s34-11,34.6-41.7-6.6-78.3-24.9-92.2"/><path class="cls-10" d="M313.5,1055.4c1.3,10.1,13.1,43.4,13.1,43.4s-16.6,37.7-22.7,50.2l10.1,4.4s20.4-25.5,27.6-50c1-3.5,1.5-7.5.5-11-4-15.1-2.9-26.1-14.7-41.4,0,0-11.4-1.6-13.9,4.4"/><path class="cls-11" d="M314.5,1045.4l-9.5-3.2-.3-20.5-30.1.4.3,21.4-7.6,1.8c-1.1,8.2,2.9,14.1,7.9,18.2v10.9l30.1-.4v-9.9C310.4,1059.7,314.9,1053.6,314.5,1045.4Z"/><path class="cls-10" d="M269.1,1057.3c-1.3,10-13.4,43.3-13.4,43.3s16.2,37.8,22.2,50.4l-10.1,4.3s-20.2-25.7-27.1-50.2c-1-3.6-1.5-7.5-.5-11.1,4.2-15,3.1-26.1,15-41.3,0,0,11.5-1.5,13.9,4.6"/><path class="cls-12" d="M303.6,1030.6v4.8s-24,2.7-25.3,6.6c-.2.6-2.4.6-2.4.6v-11a59.1,59.1,0,0,1,6.2,2.9c1.1.8,6.2,2.6,10.5.3l7.4-3A21.5,21.5,0,0,1,303.6,1030.6Z"/><path class="cls-10" d="M327,1086.5c-4.1-15-.5-36.1-.5-36.1l-13.8-5.7c-.1,17.1-22.5,26.6-22.5,26.6s-22.3-8.9-22.9-26l-13.5,6.1s4.3,21,.6,36.1l-8.8,50s16.2,5.6,45.1,5.2,45.3-6.5,45.3-6.5Z"/><path class="cls-13" d="M246.6,1136.6s15.9,5.7,44.1,5.3,44.3-6.5,44.3-6.5l-8.8-49.9c-3.5-12.6-1.5-29.6-.7-34.6l-4.4-1.4c-1.1,7.4-4.7,29-2,39.5,3.3,12.7,6.9,39.8,6.9,39.8a57.1,57.1,0,0,1-28.7,7.2c-16.4-.4-32.4,3-47.8-.2l-2.9.8"/><path class="cls-14" d="M331.6,974a2.3,2.3,0,0,0-1.1.3c-.1-1.9-.2-3.7-.4-5.3-.8-6.3-2.6-7.8-3.7-8.4s-20.1-1.9-39.1-1.5c-7.7.1-15.4.4-21.8.8-.8,0-3-11.1-3.8-11.1s-1.2,11.4-2.3,11.5c-5.6.5-9.3,1.1-9.8,1.8-2.5,3.1-.9,12.7-.9,12.7l.2.6a2.3,2.3,0,0,0-1.1-.3c-2,.1-3.6,3.2-3.6,7S246,989,248,989a2.3,2.3,0,0,0,1.1-.3,100.6,100.6,0,0,0,.8,12.6s2.3,10.1,5.6,14.5,8.4,9.9,16,13.2,14,5.4,18.3,5.4,7.4-.8,13.8-3.3,15.2-6.4,20.5-14.4,6.8-12.8,6.7-15.1.2-6.8.1-13.9l.9.2c2-.1,3.7-3.2,3.6-7S333.7,974,331.6,974Z"/><path class="cls-15" d="M272.6,992.2a2.3,2.3,0,0,1-.1,2.9,1.7,1.7,0,0,1-2.6-.1,2.4,2.4,0,0,1,.1-3,1.7,1.7,0,0,1,2.6.2"/><path class="cls-16" d="M265.3,984.4s5.2-2.6,7.7-1.9"/><path class="cls-15" d="M305.8,991.7a2.3,2.3,0,0,0,.2,2.9,1.7,1.7,0,0,0,2.6-.2,2.6,2.6,0,0,0-.2-3,1.7,1.7,0,0,0-2.6.3"/><path class="cls-16" d="M312.7,983.4s-5.2-2.5-7.8-1.7"/><path class="cls-15" d="M305.5,992.9c0,1.3.9,2.4,1.9,2.3a2.2,2.2,0,0,0,1.9-2.4c-.1-1.3-.9-2.4-2-2.3s-1.8,1.1-1.8,2.4"/><path class="cls-17" d="M307.1,991.5a.9.9,0,0,0,.9,1,1,1,0,0,0,.9-1c-.1-.6-.5-1.1-.9-1A.9.9,0,0,0,307.1,991.5Z"/><path class="cls-15" d="M269.7,993.6c0,1.4.8,2.4,1.9,2.4s1.8-1.1,1.8-2.4a2.2,2.2,0,0,0-1.9-2.4,2.1,2.1,0,0,0-1.8,2.4"/><path class="cls-17" d="M271.2,992.2c.1.6.5,1.1.9,1.1a1.1,1.1,0,0,0,.9-1.1.9.9,0,1,0-1.8,0Z"/><path class="cls-2" d="M254,1005.2a.7.7,0,0,0-.1.5v2.6a9,9,0,0,0,7.2,7.5H264a9.2,9.2,0,0,0,.4-18.1l-1.7-.2a9.1,9.1,0,0,0-8.7,7.7"/><g class="cls-18"><rect class="cls-19" x="252.4" y="995.8" width="21.5" height="21.73" transform="translate(-774.1 1088.7) rotate(-79.9)"/></g><path class="cls-3" d="M310.5,1003.1c0,.2-.1.4-.1.6v2.5a9,9,0,0,0,7.3,7.6h2.9a9.3,9.3,0,0,0,.3-18.2h-1.7a9.1,9.1,0,0,0-8.7,7.6"/><g class="cls-20"><rect class="cls-21" x="309" y="993.8" width="21.5" height="21.73" transform="translate(-725.5 1142.7) rotate(-79.9)"/></g><path class="cls-9" d="M296.4,950.2s-12.2,20.7-43.2,27.3,19.5-38.2,19.5-38.2Z"/><path class="cls-9" d="M282.9,955.2S296.6,975,328,979.3s-22.2-36.7-22.2-36.7Z"/><path class="cls-22" d="M277.9,1013.3s11.8,12.1,23.6-.2"/><path class="cls-22" d="M290.4,992.9l.2,7.4s5.1-1,3.7,4.3"/></g><g class="cls-23"><path class="cls-24" d="M454.7,980.8c.1,2.4,1.6,4.3,3.3,4.2s3.1-2.1,3-4.5-1.6-4.4-3.3-4.3S454.6,978.3,454.7,980.8Z"/><path class="cls-24" d="M406.2,984.5c.1,2.4-1.2,4.5-3,4.5s-3.2-1.8-3.3-4.2,1.2-4.5,3-4.6S406.1,982.1,406.2,984.5Z"/><path class="cls-25" d="M479.3,1098.8s-7.6-36.9-9.6-46a5.7,5.7,0,0,1,7.2-4.5c11.7,11.9,12.3,24.2,15,38,.7,3.5,2.7,14.9,2.2,18.4,0,0-.1,11.2-9.3,11.3C480.3,1116,481.2,1114,479.3,1098.8Z"/><path class="cls-10" d="M452.9,1038.2l20.2,39.5,17.6-6.3-10.5-35.2s-19.5-6.2-24.7-8.1"/><path class="cls-25" d="M373.1,1113.4c-2.2-2.1-1.3-6.1-1-9.2,1.2-12.9,1.8-22.1,4.4-36.6,0,0,9.4-2.3,11.6,2.7l-3.3,39.1S381.2,1121.7,373.1,1113.4Z"/><path class="cls-10" d="M397.6,1038.6l-6.7,39.9-17.7.7,5-36.4s2-7.3,12.7-7.3"/><path id="_Path_" data-name="&lt;Path&gt;" class="cls-24" d="M441.7,997.6c-.3,5.5,1.9,24.4,3.4,28s11.3,8.4,11.3,8.4c-12.9,12.8-29.7,16.6-45.4,5.9-4.4-3.1-3.9-5.1-3.9-5.1a19.9,19.9,0,0,0,8.3-7.2c3.6-5.4,3.1-29.9,3.1-29.9Z"/><path id="_Path_2" data-name="&lt;Path&gt;" class="cls-26" d="M437.1,1043.4c4.3-1.8,12.9-6,13.4-8.6s-6.4-6-8.5-8.6c-7.4-9-18.5-8.2-18.8-8.6s16.7-6.6,18.5-7.7c.7,6.6,1.8,14.1,2.7,16.2s10.8,7.9,10.8,7.9"/><path id="_Path_3" data-name="&lt;Path&gt;" class="cls-24" d="M430.3,1017.5a43.2,43.2,0,0,1-6.2-.5c-2.4-.3-11.5-5.1-13.7-10.9s-8.2-30.2-8.2-32.4c0,0-1-16.5,2-20.8s13.5-4.6,24.9-4.8,22.9,1.1,25.1,4,2.7,20.7,2.7,20.7c.1,2.2-5.2,26.8-7.1,32.6s-10.9,11-13.3,11.4A43.6,43.6,0,0,1,430.3,1017.5Z"/><path id="_Path_4" data-name="&lt;Path&gt;" class="cls-27" d="M450.1,968.7c2.1,1.3,1.5,3.1-.1,2.8-8.2-1.4-8.2,0-14.3-.3-2-.1-3.8-1.3-1.2-3.1S447.6,967.1,450.1,968.7Z"/><path id="_Path_5" data-name="&lt;Path&gt;" class="cls-27" d="M408.9,968.8c-2,1.4-1.4,3.2.2,2.9,8.2-1.7,8.2-.3,14.3-.8,2-.2,3.7-1.4,1.1-3.1S411.3,967.2,408.9,968.8Z"/><g id="_Group_" data-name="&lt;Group&gt;"><path id="_Path_6" data-name="&lt;Path&gt;" class="cls-27" d="M441.6,973a2.6,2.6,0,0,1,2.8,2.5,2.6,2.6,0,0,1-2.5,2.8,2.7,2.7,0,0,1-2.8-2.5A2.6,2.6,0,0,1,441.6,973Z"/><path id="_Path_7" data-name="&lt;Path&gt;" class="cls-28" d="M440.6,973.8a.8.8,0,0,1,1,.8,1.1,1.1,0,0,1-.9.9,1.1,1.1,0,0,1-1-.8A.9.9,0,0,1,440.6,973.8Z"/></g><g id="_Group_2" data-name="&lt;Group&gt;"><path id="_Path_8" data-name="&lt;Path&gt;" class="cls-27" d="M417.7,973.5a2.7,2.7,0,0,1,2.8,2.5,2.6,2.6,0,0,1-2.5,2.8,2.6,2.6,0,0,1-2.8-2.5A2.6,2.6,0,0,1,417.7,973.5Z"/><path id="_Path_9" data-name="&lt;Path&gt;" class="cls-28" d="M416.7,974.3a.9.9,0,0,1,1,.8,1.1,1.1,0,0,1-.9.9,1,1,0,0,1-1-.8A.9.9,0,0,1,416.7,974.3Z"/></g><path id="_Compound_Path_" data-name="&lt;Compound Path&gt;" class="cls-27" d="M447,932h-.4s.1-.1.4,0Zm0,0a68.5,68.5,0,0,1,7.9,0c.6.2-2.1-1.7-9.2-3.7s-13.4-.8-14.1-.1,3.3-4.2,3.6-4.7-.3.1-4.7,2.5-9.1,2.2-15.8,5.9-11.5,6.6-13.6,8-4.8,14.6-4.3,20.5c.2,1.9,5.8,21.1,6.5,21.4-.3-7.3-1.1-22.8,5.1-28,0,0,15.4,6.2,22.3,6.1s22.3-10.2,23.9-2.5,1.7,11.9,1.5,21.9c2.1-4.3,7.1-27.6,5.7-31.3s-3.4-7.6-3.4-7.6h6.3c.7-.1-3.9-1.7-10.7-5.3C449.4,932.6,447.7,932,447,932Z"/><path id="_Path_10" data-name="&lt;Path&gt;" class="cls-29" d="M447.5,1025.6c2.2.9,17,5.2,23.7,6.9,3.1.7,7.1,1.7,7.8,5.4l-6.2,48.9.5,10.9s-2.1,33.8.3,44.1,2.4,17.2,1.4,17.4-8.5,10.1-18.8,11.1c-3.8.3-34.1,3.2-44.2,1.3a88.2,88.2,0,0,1-18.7-5.8l-1.9-75.2s-10.2-49.9-7.4-53.5,29.2-9.7,29.2-9.7-.2,5.8,17,5.4S447.5,1025.6,447.5,1025.6Z"/><g class="cls-30"><path class="cls-31" d="M478.6,1154.9s-60.3,16.3-71.1,1.8,1.4-24.8-1.2-35.3-12.6-86.9-12.6-86.9l-7.8-9.9-8.7,6.7,7,139.3s66.2,20.1,94-6.3S478.6,1154.9,478.6,1154.9Z"/></g><path class="cls-32" d="M383.9,1105a41.4,41.4,0,0,0-.1,5.2l-10.1,2.4-.8-4.5s3.1-5.7,7.3-5S383.9,1105,383.9,1105Z"/><path class="cls-32" d="M480.7,1100.2l.3,3,9.9,8.7s2-2.4,2.1-8.4c0,0-9.5-4.7-12.3-3.3"/><path class="cls-33" d="M420,1000.2s7.9,3.8,19,0"/><path class="cls-34" d="M429.5,975s-.1,13,2.2,13.2l-2.2,1.5"/></g></g><g id="Texto"><text class="cls-35" transform="translate(222.1 289.7) scale(0.87 1)">5. Género</text></g></svg>