<svg height="504pt" viewBox="-118 0 504 504.76026" width="504pt" xmlns="http://www.w3.org/2000/svg"><path d="m251.613281 417.980469c-10.746093 11.949219-16.898437 27.328125-17.355469 43.390625v26.035156c-.027343 9.570312-7.78125 17.324219-17.355468 17.355469h-139.628906c-9.574219-.03125-17.328126-7.785157-17.355469-17.355469v-69.597656c.050781-3.457032-.945313-6.847656-2.863281-9.722656-5.921876-8.476563-10.757813-17.660157-14.40625-27.332032-10.214844-21.957031-15.683594-45.820312-16.054688-70.03125l124.007812-104.917968c6.683594 14.664062 31.066407 11.886718 31.066407-4.253907v-.085937l.089843-174.425782c-.375-9.636718 4.613282-18.691406 12.957032-23.527343 8.34375-4.839844 18.679687-4.664063 26.855468.445312 8.179688 5.113281 12.859376 14.328125 12.167969 23.949219v225.191406h9.199219c14.375 0 26.03125 11.65625 26.03125 26.035156v86.78125s2.257812 32.453126-17.355469 52.066407zm0 0" fill="#fdd7ad"/><path d="m198.765625 478.726562h-8.679687c-4.792969 0-8.675782-3.886718-8.675782-8.679687s3.882813-8.675781 8.675782-8.675781h8.679687c4.792969 0 8.679687 3.882812 8.679687 8.675781s-3.886718 8.679687-8.679687 8.679687zm0 0" fill="#fee7ce"/><path d="m155.375 478.726562h-60.746094c-4.792968 0-8.675781-3.886718-8.675781-8.679687s3.882813-8.675781 8.675781-8.675781h60.746094c4.792969 0 8.679688 3.882812 8.679688 8.675781s-3.886719 8.679687-8.679688 8.679687zm0 0" fill="#fee7ce"/><path d="m80.300781 364.175781c-10.644531 4.851563-23.222656 1.949219-30.667969-7.078125-1.554687-1.742187-2.832031-3.710937-3.78125-5.84375l-43.128906-94.8125c-3.671875-8.085937-2.96875-17.480468 1.863282-24.929687 4.828124-7.445313 13.121093-11.921875 22-11.867188.640624-.023437 1.285156.035157 1.910156.183594 9.40625.691406 17.6875 6.460937 21.589844 15.046875l43.136718 94.824219c2.886719 6.28125 3.144532 13.457031.71875 19.929687-2.425781 6.472656-7.335937 11.710938-13.640625 14.546875zm0 0" fill="#cbb292"/><path d="m64.507812 364.039062c-.984374.441407-2.003906.808594-3.046874 1.101563-6.921876-2.230469-12.589844-7.269531-15.617188-13.886719l-43.132812-94.839844c-5.933594-13.082031-.152344-28.5 12.921874-34.453124.988282-.441407 2.007813-.808594 3.046876-1.101563 6.941406 2.199219 12.621093 7.25 15.621093 13.886719l43.128907 94.71875c2.890624 6.296875 3.148437 13.484375.726562 19.972656-2.425781 6.488281-7.335938 11.742188-13.648438 14.601562zm0 0" fill="#fdd7ad"/><path d="m112.59375 310.722656c-10.648438 4.84375-23.222656 1.941406-30.667969-7.082031-1.558593-1.738281-2.835937-3.707031-3.785156-5.839844l-43.128906-94.824219c-3.667969-8.085937-2.964844-17.484374 1.867187-24.933593 4.832032-7.449219 13.128906-11.917969 22.007813-11.863281.640625-.023438 1.28125.042968 1.90625.191406 9.414062.695312 17.695312 6.484375 21.582031 15.082031l43.140625 94.816406c2.871094 6.28125 3.121094 13.445313.699219 19.910157-2.425782 6.464843-7.328125 11.699218-13.621094 14.542968zm0 0" fill="#cbb292"/><path d="m96.800781 310.589844c-.988281.445312-2.007812.816406-3.046875 1.113281-6.925781-2.230469-12.597656-7.269531-15.621094-13.886719l-43.121093-94.851562c-5.929688-13.078125-.148438-28.488282 12.921875-34.441406.988281-.445313 2.003906-.816407 3.046875-1.109376 6.941406 2.199219 12.621093 7.246094 15.621093 13.882813l43.136719 94.730469c2.886719 6.296875 3.140625 13.484375.714844 19.96875-2.429687 6.488281-7.34375 11.738281-13.652344 14.59375zm0 0" fill="#fdd7ad"/><path d="m161.554688 293.582031c-10.644532 4.855469-23.222657 1.953125-30.667969-7.074219-1.550781-1.742187-2.824219-3.710937-3.773438-5.839843l-43.140625-94.824219c-3.667968-8.082031-2.964844-17.480469 1.867188-24.929688 4.832031-7.449218 13.128906-11.921874 22.007812-11.863281.640625-.023437 1.28125.042969 1.90625.191407 9.417969.6875 17.699219 6.476562 21.582032 15.082031l43.132812 94.847656c2.863281 6.273437 3.109375 13.429687.6875 19.886719-2.421875 6.457031-7.316406 11.683594-13.601562 14.523437zm0 0" fill="#cbb292"/><path d="m145.761719 293.460938c-.988281.445312-2.003907.8125-3.046875 1.101562-6.929688-2.222656-12.601563-7.265625-15.621094-13.882812l-43.121094-94.84375c-5.929687-13.078126-.148437-28.492188 12.921875-34.441407.984375-.449219 2.003907-.820312 3.046875-1.113281 6.941406 2.203125 12.621094 7.25 15.621094 13.886719l43.136719 94.738281c2.882812 6.292969 3.136719 13.480469.710937 19.964844-2.429687 6.484375-7.339844 11.734375-13.648437 14.589844zm0 0" fill="#fdd7ad"/><path d="m164.921875 374.589844c-3.199219 0-6.140625-1.765625-7.648437-4.585938-1.507813-2.824218-1.339844-6.246094.4375-8.90625 7.5625-12.910156 19.285156-22.875 33.246093-28.257812v-18.996094c0-4.792969 3.882813-8.675781 8.675781-8.675781 4.792969 0 8.679688 3.882812 8.679688 8.675781v26.035156c0 4.792969-3.886719 8.679688-8.679688 8.679688-.328124 0-13.347656.960937-27.484374 22.171875-1.609376 2.414062-4.324219 3.863281-7.226563 3.859375zm0 0" fill="#cbb292"/><path d="m226.074219 310.140625c-.277344 2.109375-2.078125 3.6875-4.207031 3.6875h-60.019532c-12.5625.191406-24.550781-5.269531-32.652344-14.875-10.257812-10.679687-10.257812-27.550781 0-38.234375 3.269532-3.300781 7.382813-5.640625 11.886719-6.769531-1.8125 3.609375-2.761719 7.589843-2.777343 11.628906 0 19.136719 15.488281 34.664063 34.625 34.710937h44.570312c2.503906.007813 4.878906 1.09375 6.523438 2.980469 1.640624 1.886719 2.390624 4.390625 2.050781 6.871094zm0 0" fill="#cbb292"/><path d="m233.738281 253.097656.605469 47.210938h-61.4375c-19.136719-.050782-34.625-15.574219-34.625-34.714844.011719-4.035156.964844-8.015625 2.777344-11.625 2.085937-.605469 4.25-.898438 6.421875-.871094zm0 0" fill="#fdd7ad"/></svg>