<svg height="512pt" viewBox="-63 0 512 512.00375" width="512pt" xmlns="http://www.w3.org/2000/svg"><path d="m378.773438 212.308594c-53.40625 53.40625-61.441407 135.855468-116.523438 188.378906-4.59375 4.191406-8.816406 8.769531-12.625 13.683594-11.121094 15.007812-12.09375 32.660156-12.09375 50.667968v29.308594c-.027344 9.738282-7.917969 17.628906-17.65625 17.65625h-141.242188c-9.738281-.027344-17.625-7.917968-17.652343-17.65625v-70.796875c.050781-3.515625-.964844-6.960937-2.914063-9.886719-6.023437-8.625-10.945312-17.964843-14.652344-27.804687-10.394531-22.339844-15.988281-46.609375-16.421874-71.242187l126.234374-106.722657c6.796876 14.917969 31.605469 12.09375 31.605469-4.328125v-177.519531c.242188-14.628906 12.296875-26.285156 26.921875-26.04296875 14.625.24218775 26.285156 12.29687475 26.042969 26.92578175v256l17.390625-8.828126c14.417969-8.78125 26.527344-20.890624 35.308594-35.3125 17.65625-26.480468 52.964844-61.792968 70.621094-61.792968s35.3125 17.65625 17.65625 35.3125zm0 0" fill="#fdd7ad"/><path d="m115.355469 314.441406c-13.261719 6.070313-28.9375.320313-35.132813-12.886718l-44.578125-96.132813c-6.132812-13.261719-.363281-28.984375 12.886719-35.132813 1-.460937 2.035156-.84375 3.089844-1.148437 2.589844-.867187 5.304687-1.316406 8.035156-1.324219 10.320312-.03125 19.710938 5.972656 24.011719 15.359375l44.578125 96.042969c2.972656 6.378906 3.28125 13.679688.863281 20.289062-2.417969 6.605469-7.363281 11.980469-13.753906 14.933594zm0 0" fill="#cbb292"/><path d="m99.292969 314.441406c-1 .460938-2.035157.84375-3.089844 1.148438-7.0625-2.222656-12.863281-7.320313-15.980469-14.035156l-44.578125-96.132813c-6.132812-13.261719-.363281-28.984375 12.886719-35.132813 1-.460937 2.035156-.84375 3.089844-1.148437 7.082031 2.195313 12.890625 7.296875 15.980468 14.035156l44.578126 96.042969c2.972656 6.378906 3.285156 13.679688.863281 20.289062-2.417969 6.605469-7.363281 11.980469-13.75 14.933594zm0 0" fill="#fdd7ad"/><g fill="#cbb292"><path d="m98.296875 152.667969c13.265625-6.15625 29.011719-.386719 35.167969 12.878906l44.574218 96.097656c6.15625 13.265625.386719 29.011719-12.878906 35.167969-13.269531 6.152344-29.015625.386719-35.167968-12.882812l-44.578126-96.09375c-6.152343-13.269532-.386718-29.011719 12.882813-35.167969zm0 0"/><path d="m82.164062 368.730469c-10.792968 5.015625-23.609374 2.152343-31.246093-6.972657-1.59375-1.757812-2.90625-3.753906-3.886719-5.914062l-44.578125-96.132812c-3.792969-8.195313-3.148437-17.761719 1.710937-25.375 4.863282-7.613282 13.265626-12.222657 22.300782-12.230469.652344-.027344 1.304687.03125 1.941406.175781 9.582031.636719 18.046875 6.464844 22.070312 15.183594l44.578126 96.132812c2.96875 6.367188 3.277343 13.652344.859374 20.246094-2.421874 6.59375-7.367187 11.953125-13.75 14.886719zm0 0"/><path d="m290.761719 238.347656c-.011719.09375-.042969.183594-.089844.265625-2.0625 12.652344-8.738281 24.09375-18.738281 32.113281-11.445313 8.429688-24.417969 14.550782-38.199219 18.027344-9.378906 2.324219-17.539063 8.089844-22.863281 16.15625-3.148438 4.808594-4.890625 10.40625-5.03125 16.152344 0 4.875-3.953125 8.828125-8.828125 8.828125s-8.828125-3.953125-8.828125-8.828125c.121094-9.09375 2.8125-17.972656 7.769531-25.597656 11.035156-17.480469 33.105469-19.246094 51.199219-24.453125 3.660156-1.023438 7.257812-2.261719 10.769531-3.707031 3.082031-1.242188 6.0625-2.714844 8.917969-4.414063 9.136718-6.957031 17.199218-15.226563 23.921875-24.542969zm0 0"/></g><path d="m202.203125 485.519531h-8.828125c-4.875 0-8.828125-3.949219-8.828125-8.824219 0-4.878906 3.953125-8.828124 8.828125-8.828124h8.828125c4.875 0 8.828125 3.949218 8.828125 8.828124 0 4.875-3.953125 8.824219-8.828125 8.824219zm0 0" fill="#fee7ce"/><path d="m158.066406 485.519531h-61.792968c-4.875 0-8.828126-3.949219-8.828126-8.824219 0-4.878906 3.953126-8.828124 8.828126-8.828124h61.792968c4.875 0 8.828125 3.949218 8.828125 8.828124 0 4.875-3.953125 8.824219-8.828125 8.824219zm0 0" fill="#fee7ce"/><path d="m149.0625 296.824219c-1 .457031-2.035156.839843-3.089844 1.144531-7.0625-2.222656-12.863281-7.316406-15.980468-14.035156l-44.578126-96.132813c-6.128906-13.261719-.363281-28.980469 12.886719-35.132812 1-.460938 2.035157-.84375 3.089844-1.148438 7.082031 2.195313 12.890625 7.300781 15.980469 14.035157l44.578125 96.046874c2.972656 6.378907 3.285156 13.675782.867187 20.285157-2.417968 6.609375-7.367187 11.980469-13.753906 14.9375zm0 0" fill="#fdd7ad"/><path d="m78.28125 357.167969c-2.660156 5.101562-6.949219 9.171875-12.183594 11.5625-.996094.460937-2.03125.84375-3.085937 1.148437-7.0625-2.222656-12.863281-7.316406-15.980469-14.035156l-44.578125-96.132812c-6.132813-13.261719-.363281-28.980469 12.886719-35.132813 1-.460937 2.035156-.84375 3.089844-1.148437 7.078124 2.195312 12.890624 7.300781 15.980468 14.035156l44.578125 96.046875c.628907 1.390625 1.132813 2.839843 1.5 4.324219 1.820313 6.484374 1.027344 13.425781-2.207031 19.332031zm0 0" fill="#fdd7ad"/></svg>